{
  "accessors": [
    {
      "bufferView": 0,
      "componentType": 5125,
      "count": 897,
      "max": [
        173
      ],
      "min": [
        0
      ],
      "type": "SCALAR"
    },
    {
      "bufferView": 1,
      "componentType": 5125,
      "count": 897,
      "max": [
        347
      ],
      "min": [
        174
      ],
      "type": "SCALAR"
    },
    {
      "bufferView": 2,
      "componentType": 5125,
      "count": 1692,
      "max": [
        732
      ],
      "min": [
        348
      ],
      "type": "SCALAR"
    },
    {
      "bufferView": 3,
      "componentType": 5126,
      "count": 733,
      "max": [
        0.2920941710472107,
        1.5765249729156494,
        0.04322025179862976
      ],
      "min": [
        0.17858189344406128,
        1.3900861740112305,
        -0.11521083861589432
      ],
      "type": "VEC3"
    },
    {
      "bufferView": 4,
      "componentType": 5126,
      "count": 733,
      "max": [
        0.9184154272079468,
        0.9183194637298584,
        0.999545693397522
      ],
      "min": [
        -0.992875874042511,
        -0.9188929200172424,
        -0.9995414614677429
      ],
      "type": "VEC3"
    },
    {
      "bufferView": 5,
      "componentType": 5126,
      "count": 733,
      "max": [
        170.503662109375,
        75.7430419921875
      ],
      "min": [
        -170.503662109375,
        -75.5772705078125
      ],
      "type": "VEC2"
    },
    {
      "bufferView": 6,
      "componentType": 5125,
      "count": 45,
      "max": [
        16
      ],
      "min": [
        0
      ],
      "type": "SCALAR"
    },
    {
      "bufferView": 7,
      "componentType": 5125,
      "count": 45,
      "max": [
        33
      ],
      "min": [
        17
      ],
      "type": "SCALAR"
    },
    {
      "bufferView": 8,
      "componentType": 5125,
      "count": 612,
      "max": [
        180
      ],
      "min": [
        34
      ],
      "type": "SCALAR"
    },
    {
      "bufferView": 9,
      "componentType": 5126,
      "count": 181,
      "max": [
        0.08744147419929504,
        1.634022831916809,
        0.05346432700753212
      ],
      "min": [
        -0.004158831667155027,
        1.5491116046905518,
        -0.038855526596307755
      ],
      "type": "VEC3"
    },
    {
      "bufferView": 10,
      "componentType": 5126,
      "count": 181,
      "max": [
        0.7873273491859436,
        0.8135449290275574,
        0.8858128786087036
      ],
      "min": [
        -0.9997449517250061,
        -0.80825275182724,
        -0.8858119249343872
      ],
      "type": "VEC3"
    },
    {
      "bufferView": 11,
      "componentType": 5126,
      "count": 181,
      "max": [
        -90.22052001953125,
        8.0
      ],
      "min": [
        -226.87632751464844,
        -8.0
      ],
      "type": "VEC2"
    },
    {
      "bufferView": 12,
      "componentType": 5125,
      "count": 927,
      "max": [
        178
      ],
      "min": [
        0
      ],
      "type": "SCALAR"
    },
    {
      "bufferView": 13,
      "componentType": 5125,
      "count": 927,
      "max": [
        357
      ],
      "min": [
        179
      ],
      "type": "SCALAR"
    },
    {
      "bufferView": 14,
      "componentType": 5125,
      "count": 1692,
      "max": [
        742
      ],
      "min": [
        358
      ],
      "type": "SCALAR"
    },
    {
      "bufferView": 15,
      "componentType": 5126,
      "count": 743,
      "max": [
        -0.17873916029930115,
        1.570949673652649,
        0.04091043397784233
      ],
      "min": [
        -0.2960280478000641,
        1.3863884210586548,
        -0.11636010557413101
      ],
      "type": "VEC3"
    },
    {
      "bufferView": 16,
      "componentType": 5126,
      "count": 743,
      "max": [
        0.9872910380363464,
        0.9121659398078918,
        0.9986386895179749
      ],
      "min": [
        -0.9113024473190308,
        -0.9120715856552124,
        -0.9986774325370789
      ],
      "type": "VEC3"
    },
    {
      "bufferView": 17,
      "componentType": 5126,
      "count": 743,
      "max": [
        170.503662109375,
        75.7430419921875
      ],
      "min": [
        -170.503662109375,
        -75.5772705078125
      ],
      "type": "VEC2"
    },
    {
      "bufferView": 18,
      "componentType": 5125,
      "count": 45,
      "max": [
        16
      ],
      "min": [
        0
      ],
      "type": "SCALAR"
    },
    {
      "bufferView": 19,
      "componentType": 5125,
      "count": 45,
      "max": [
        33
      ],
      "min": [
        17
      ],
      "type": "SCALAR"
    },
    {
      "bufferView": 20,
      "componentType": 5125,
      "count": 612,
      "max": [
        180
      ],
      "min": [
        34
      ],
      "type": "SCALAR"
    },
    {
      "bufferView": 21,
      "componentType": 5126,
      "count": 181,
      "max": [
        -0.0037730480544269085,
        1.6286535263061523,
        0.05346427112817764
      ],
      "min": [
        -0.09466809779405594,
        1.5491114854812622,
        -0.038409098982810974
      ],
      "type": "VEC3"
    },
    {
      "bufferView": 22,
      "componentType": 5126,
      "count": 181,
      "max": [
        0.9996932148933411,
        0.8258933424949646,
        0.8855898976325989
      ],
      "min": [
        -0.8778704404830933,
        -0.8216429352760315,
        -0.8855892419815063
      ],
      "type": "VEC3"
    },
    {
      "bufferView": 23,
      "componentType": 5126,
      "count": 181,
      "max": [
        226.87632751464844,
        8.0
      ],
      "min": [
        90.22052001953125,
        -8.0
      ],
      "type": "VEC2"
    },
    {
      "bufferView": 24,
      "componentType": 5125,
      "count": 6396,
      "max": [
        1125
      ],
      "min": [
        0
      ],
      "type": "SCALAR"
    },
    {
      "bufferView": 25,
      "componentType": 5125,
      "count": 6396,
      "max": [
        2251
      ],
      "min": [
        1126
      ],
      "type": "SCALAR"
    },
    {
      "bufferView": 26,
      "componentType": 5125,
      "count": 4248,
      "max": [
        3175
      ],
      "min": [
        2252
      ],
      "type": "SCALAR"
    },
    {
      "bufferView": 27,
      "componentType": 5126,
      "count": 3176,
      "max": [
        0.2001480758190155,
        1.626006007194519,
        0.13797974586486816
      ],
      "min": [
        -0.20899461209774017,
        1.050634503364563,
        -0.04134538397192955
      ],
      "type": "VEC3"
    },
    {
      "bufferView": 28,
      "componentType": 5126,
      "count": 3176,
      "max": [
        0.9982364177703857,
        0.9734659194946289,
        0.9999861121177673
      ],
      "min": [
        -0.9982394576072693,
        -0.9999791383743286,
        -0.9999862313270569
      ],
      "type": "VEC3"
    },
    {
      "bufferView": 29,
      "componentType": 5126,
      "count": 3176,
      "max": [
        228.43788146972656,
        247.75714111328125
      ],
      "min": [
        -228.4378204345703,
        -363.539306640625
      ],
      "type": "VEC2"
    },
    {
      "bufferView": 30,
      "componentType": 5125,
      "count": 6906,
      "max": [
        1211
      ],
      "min": [
        0
      ],
      "type": "SCALAR"
    },
    {
      "bufferView": 31,
      "componentType": 5125,
      "count": 6906,
      "max": [
        2423
      ],
      "min": [
        1212
      ],
      "type": "SCALAR"
    },
    {
      "bufferView": 32,
      "componentType": 5125,
      "count": 4320,
      "max": [
        3361
      ],
      "min": [
        2424
      ],
      "type": "SCALAR"
    },
    {
      "bufferView": 33,
      "componentType": 5126,
      "count": 3362,
      "max": [
        0.20005202293395996,
        1.6296700239181519,
        0.006146560423076153
      ],
      "min": [
        -0.20741064846515656,
        1.045477271080017,
        -0.14396585524082184
      ],
      "type": "VEC3"
    },
    {
      "bufferView": 34,
      "componentType": 5126,
      "count": 3362,
      "max": [
        0.9992266893386841,
        0.9908376932144165,
        0.9999693632125854
      ],
      "min": [
        -0.9992273449897766,
        -0.9993751049041748,
        -0.9999693632125854
      ],
      "type": "VEC3"
    },
    {
      "bufferView": 35,
      "componentType": 5126,
      "count": 3362,
      "max": [
        228.3779296875,
        294.94915771484375
      ],
      "min": [
        -228.3779296875,
        -329.534912109375
      ],
      "type": "VEC2"
    },
    {
      "bufferView": 36,
      "componentType": 5125,
      "count": 66,
      "max": [
        23
      ],
      "min": [
        0
      ],
      "type": "SCALAR"
    },
    {
      "bufferView": 37,
      "componentType": 5125,
      "count": 66,
      "max": [
        47
      ],
      "min": [
        24
      ],
      "type": "SCALAR"
    },
    {
      "bufferView": 38,
      "componentType": 5125,
      "count": 864,
      "max": [
        257
      ],
      "min": [
        48
      ],
      "type": "SCALAR"
    },
    {
      "bufferView": 39,
      "componentType": 5126,
      "count": 258,
      "max": [
        0.08742982149124146,
        1.6380200386047363,
        -0.03465300425887108
      ],
      "min": [
        -0.09466031193733215,
        1.6215325593948364,
        -0.08500146120786667
      ],
      "type": "VEC3"
    },
    {
      "bufferView": 40,
      "componentType": 5126,
      "count": 258,
      "max": [
        0.787850558757782,
        0.8812312483787537,
        0.9709204435348511
      ],
      "min": [
        -0.8182909488677979,
        -0.8829792737960815,
        -0.8832900524139404
      ],
      "type": "VEC3"
    },
    {
      "bufferView": 41,
      "componentType": 5126,
      "count": 258,
      "max": [
        91.189208984375,
        8.000244140625
      ],
      "min": [
        -91.1890869140625,
        -8.000244140625
      ],
      "type": "VEC2"
    }
  ],
  "asset": {
    "generator": "CLO Standalone OnlineAuth",
    "version": "2.0"
  },
  "bufferViews": [
    {
      "buffer": 0,
      "byteLength": 3588
    },
    {
      "buffer": 0,
      "byteLength": 3588,
      "byteOffset": 3588
    },
    {
      "buffer": 0,
      "byteLength": 6768,
      "byteOffset": 7176
    },
    {
      "buffer": 0,
      "byteLength": 8796,
      "byteOffset": 13944
    },
    {
      "buffer": 0,
      "byteLength": 8796,
      "byteOffset": 22740
    },
    {
      "buffer": 0,
      "byteLength": 5864,
      "byteOffset": 31536
    },
    {
      "buffer": 0,
      "byteLength": 180,
      "byteOffset": 37400
    },
    {
      "buffer": 0,
      "byteLength": 180,
      "byteOffset": 37580
    },
    {
      "buffer": 0,
      "byteLength": 2448,
      "byteOffset": 37760
    },
    {
      "buffer": 0,
      "byteLength": 2172,
      "byteOffset": 40208
    },
    {
      "buffer": 0,
      "byteLength": 2172,
      "byteOffset": 42380
    },
    {
      "buffer": 0,
      "byteLength": 1448,
      "byteOffset": 44552
    },
    {
      "buffer": 0,
      "byteLength": 3708,
      "byteOffset": 46000
    },
    {
      "buffer": 0,
      "byteLength": 3708,
      "byteOffset": 49708
    },
    {
      "buffer": 0,
      "byteLength": 6768,
      "byteOffset": 53416
    },
    {
      "buffer": 0,
      "byteLength": 8916,
      "byteOffset": 60184
    },
    {
      "buffer": 0,
      "byteLength": 8916,
      "byteOffset": 69100
    },
    {
      "buffer": 0,
      "byteLength": 5944,
      "byteOffset": 78016
    },
    {
      "buffer": 0,
      "byteLength": 180,
      "byteOffset": 83960
    },
    {
      "buffer": 0,
      "byteLength": 180,
      "byteOffset": 84140
    },
    {
      "buffer": 0,
      "byteLength": 2448,
      "byteOffset": 84320
    },
    {
      "buffer": 0,
      "byteLength": 2172,
      "byteOffset": 86768
    },
    {
      "buffer": 0,
      "byteLength": 2172,
      "byteOffset": 88940
    },
    {
      "buffer": 0,
      "byteLength": 1448,
      "byteOffset": 91112
    },
    {
      "buffer": 0,
      "byteLength": 25584,
      "byteOffset": 92560
    },
    {
      "buffer": 0,
      "byteLength": 25584,
      "byteOffset": 118144
    },
    {
      "buffer": 0,
      "byteLength": 16992,
      "byteOffset": 143728
    },
    {
      "buffer": 0,
      "byteLength": 38112,
      "byteOffset": 160720
    },
    {
      "buffer": 0,
      "byteLength": 38112,
      "byteOffset": 198832
    },
    {
      "buffer": 0,
      "byteLength": 25408,
      "byteOffset": 236944
    },
    {
      "buffer": 0,
      "byteLength": 27624,
      "byteOffset": 262352
    },
    {
      "buffer": 0,
      "byteLength": 27624,
      "byteOffset": 289976
    },
    {
      "buffer": 0,
      "byteLength": 17280,
      "byteOffset": 317600
    },
    {
      "buffer": 0,
      "byteLength": 40344,
      "byteOffset": 334880
    },
    {
      "buffer": 0,
      "byteLength": 40344,
      "byteOffset": 375224
    },
    {
      "buffer": 0,
      "byteLength": 26896,
      "byteOffset": 415568
    },
    {
      "buffer": 0,
      "byteLength": 264,
      "byteOffset": 442464
    },
    {
      "buffer": 0,
      "byteLength": 264,
      "byteOffset": 442728
    },
    {
      "buffer": 0,
      "byteLength": 3456,
      "byteOffset": 442992
    },
    {
      "buffer": 0,
      "byteLength": 3096,
      "byteOffset": 446448
    },
    {
      "buffer": 0,
      "byteLength": 3096,
      "byteOffset": 449544
    },
    {
      "buffer": 0,
      "byteLength": 2064,
      "byteOffset": 452640
    }
  ],
  "buffers": [
    {
      "byteLength": 454704,
      "uri": "tees.bin"
    }
  ],
  "extensionsUsed": [
    "KHR_materials_specular"
  ],
  "materials": [
    {
      "extensions": {
        "KHR_materials_specular": {
          "specularFactor": 0.15000000596046448
        }
      },
      "name": "Default Fabric_FRONT_30839",
      "pbrMetallicRoughness": {
        "metallicFactor": 0.0,
        "roughnessFactor": 0.5
      }
    }
  ],
  "meshes": [
    {
      "name": "Cloth_mesh",
      "primitives": [
        {
          "attributes": {
            "NORMAL": 4,
            "POSITION": 3,
            "TEXCOORD_0": 5
          },
          "indices": 0,
          "material": 0
        },
        {
          "attributes": {
            "NORMAL": 4,
            "POSITION": 3,
            "TEXCOORD_0": 5
          },
          "indices": 1,
          "material": 0
        },
        {
          "attributes": {
            "NORMAL": 4,
            "POSITION": 3,
            "TEXCOORD_0": 5
          },
          "indices": 2,
          "material": 0
        },
        {
          "attributes": {
            "NORMAL": 10,
            "POSITION": 9,
            "TEXCOORD_0": 11
          },
          "indices": 6,
          "material": 0
        },
        {
          "attributes": {
            "NORMAL": 10,
            "POSITION": 9,
            "TEXCOORD_0": 11
          },
          "indices": 7,
          "material": 0
        },
        {
          "attributes": {
            "NORMAL": 10,
            "POSITION": 9,
            "TEXCOORD_0": 11
          },
          "indices": 8,
          "material": 0
        },
        {
          "attributes": {
            "NORMAL": 16,
            "POSITION": 15,
            "TEXCOORD_0": 17
          },
          "indices": 12,
          "material": 0
        },
        {
          "attributes": {
            "NORMAL": 16,
            "POSITION": 15,
            "TEXCOORD_0": 17
          },
          "indices": 13,
          "material": 0
        },
        {
          "attributes": {
            "NORMAL": 16,
            "POSITION": 15,
            "TEXCOORD_0": 17
          },
          "indices": 14,
          "material": 0
        },
        {
          "attributes": {
            "NORMAL": 22,
            "POSITION": 21,
            "TEXCOORD_0": 23
          },
          "indices": 18,
          "material": 0
        },
        {
          "attributes": {
            "NORMAL": 22,
            "POSITION": 21,
            "TEXCOORD_0": 23
          },
          "indices": 19,
          "material": 0
        },
        {
          "attributes": {
            "NORMAL": 22,
            "POSITION": 21,
            "TEXCOORD_0": 23
          },
          "indices": 20,
          "material": 0
        },
        {
          "attributes": {
            "NORMAL": 28,
            "POSITION": 27,
            "TEXCOORD_0": 29
          },
          "indices": 24,
          "material": 0
        },
        {
          "attributes": {
            "NORMAL": 28,
            "POSITION": 27,
            "TEXCOORD_0": 29
          },
          "indices": 25,
          "material": 0
        },
        {
          "attributes": {
            "NORMAL": 28,
            "POSITION": 27,
            "TEXCOORD_0": 29
          },
          "indices": 26,
          "material": 0
        },
        {
          "attributes": {
            "NORMAL": 34,
            "POSITION": 33,
            "TEXCOORD_0": 35
          },
          "indices": 30,
          "material": 0
        },
        {
          "attributes": {
            "NORMAL": 34,
            "POSITION": 33,
            "TEXCOORD_0": 35
          },
          "indices": 31,
          "material": 0
        },
        {
          "attributes": {
            "NORMAL": 34,
            "POSITION": 33,
            "TEXCOORD_0": 35
          },
          "indices": 32,
          "material": 0
        },
        {
          "attributes": {
            "NORMAL": 40,
            "POSITION": 39,
            "TEXCOORD_0": 41
          },
          "indices": 36,
          "material": 0
        },
        {
          "attributes": {
            "NORMAL": 40,
            "POSITION": 39,
            "TEXCOORD_0": 41
          },
          "indices": 37,
          "material": 0
        },
        {
          "attributes": {
            "NORMAL": 40,
            "POSITION": 39,
            "TEXCOORD_0": 41
          },
          "indices": 38,
          "material": 0
        }
      ]
    }
  ],
  "nodes": [
    {
      "children": [
        1
      ],
      "name": "tees_Scene_Node"
    },
    {
      "mesh": 0,
      "name": "Cloth"
    }
  ],
  "scene": 0,
  "scenes": [
    {
      "nodes": [
        0
      ]
    }
  ]
}