{
	"asset":{
		"generator":"Khronos glTF Blender I/O v3.6.27",
		"version":"2.0"
	},
	"extensionsUsed":[
		"KHR_texture_transform"
	],
	"extensionsRequired":[
		"KHR_texture_transform"
	],
	"scene":0,
	"scenes":[
		{
			"name":"Scene",
			"nodes":[
				17
			]
		}
	],
	"nodes":[
		{
			"mesh":0,
			"name":"hoodie_Rib_2X2_468gsm_hoodie_end_0"
		},
		{
			"mesh":1,
			"name":"hoodie_stitches_0"
		},
		{
			"mesh":2,
			"name":"hoodie_stitches_0.001"
		},
		{
			"mesh":3,
			"name":"hoodie_stitches_0.002"
		},
		{
			"mesh":4,
			"name":"hoodie_stitches_0.003"
		},
		{
			"mesh":5,
			"name":"hoodie_stitches_0.004"
		},
		{
			"mesh":6,
			"name":"hoodie_stitches_0.005"
		},
		{
			"mesh":7,
			"name":"hoodie_stitches_0.006"
		},
		{
			"mesh":8,
			"name":"hoodie_stitches_0.007"
		},
		{
			"mesh":9,
			"name":"hoodie_stitches_0.008"
		},
		{
			"mesh":10,
			"name":"hoodie_stitches_0.009"
		},
		{
			"mesh":11,
			"name":"hoodie_stitches_0.010"
		},
		{
			"mesh":12,
			"name":"hoodie_Sweat_hood_Rib_1X1_319gsm_hood_0"
		},
		{
			"mesh":13,
			"name":"hoodie_Sweat_Rib_1X1_319gsm_hoodie_0"
		},
		{
			"children":[
				0,
				1,
				2,
				3,
				4,
				5,
				6,
				7,
				8,
				9,
				10,
				11,
				12,
				13
			],
			"name":"hoodie",
			"scale":[
				100,
				99.99999237060547,
				99.99999237060547
			]
		},
		{
			"children":[
				14
			],
			"name":"RootNode"
		},
		{
			"children":[
				15
			],
			"name":"hoodie.fbx",
			"rotation":[
				0.70710688829422,
				0,
				0,
				0.7071066498756409
			],
			"scale":[
				0.009999999776482582,
				0.010000000707805157,
				0.010000000707805157
			]
		},
		{
			"children":[
				16
			],
			"name":"Sketchfab_model",
			"rotation":[
				-0.70710688829422,
				0,
				0,
				0.7071066498756409
			],
			"translation":[
				0,
				-1.0892739295959473,
				0
			]
		}
	],
	"materials":[
		{
			"doubleSided":true,
			"name":"lambert1.001",
			"normalTexture":{
				"extensions":{
					"KHR_texture_transform":{
						"offset":[
							0,
							-7
						],
						"scale":[
							8,
							8
						]
					}
				},
				"index":0,
				"scale":2.809999942779541
			},
			"occlusionTexture":{
				"index":1
			},
			"pbrMetallicRoughness":{
				"baseColorFactor":[
					0,
					0,
					0,
					1
				],
				"metallicFactor":0,
				"roughnessFactor":0.5527864098548889
			}
		},
		{
			"doubleSided":true,
			"name":"stitches",
			"pbrMetallicRoughness":{
				"baseColorFactor":[
					0.7874659895896912,
					0,
					0,
					1
				],
				"metallicFactor":0,
				"roughnessFactor":0
			}
		}
	],
	"meshes":[
		{
			"name":"hoodie_Rib_2X2_468gsm_hoodie_end_0",
			"primitives":[
				{
					"attributes":{
						"POSITION":0,
						"NORMAL":1,
						"TEXCOORD_0":2,
						"TEXCOORD_1":3
					},
					"indices":4,
					"material":0
				}
			]
		},
		{
			"name":"hoodie_stitches_0",
			"primitives":[
				{
					"attributes":{
						"POSITION":5,
						"NORMAL":6,
						"TEXCOORD_0":7
					},
					"indices":8,
					"material":1
				}
			]
		},
		{
			"name":"hoodie_stitches_0.001",
			"primitives":[
				{
					"attributes":{
						"POSITION":9,
						"NORMAL":10,
						"TEXCOORD_0":11
					},
					"indices":12,
					"material":1
				}
			]
		},
		{
			"name":"hoodie_stitches_0.002",
			"primitives":[
				{
					"attributes":{
						"POSITION":13,
						"NORMAL":14,
						"TEXCOORD_0":15
					},
					"indices":16,
					"material":1
				}
			]
		},
		{
			"name":"hoodie_stitches_0.003",
			"primitives":[
				{
					"attributes":{
						"POSITION":17,
						"NORMAL":18,
						"TEXCOORD_0":19
					},
					"indices":20,
					"material":1
				}
			]
		},
		{
			"name":"hoodie_stitches_0.004",
			"primitives":[
				{
					"attributes":{
						"POSITION":21,
						"NORMAL":22,
						"TEXCOORD_0":23
					},
					"indices":24,
					"material":1
				}
			]
		},
		{
			"name":"hoodie_stitches_0.005",
			"primitives":[
				{
					"attributes":{
						"POSITION":25,
						"NORMAL":26,
						"TEXCOORD_0":27
					},
					"indices":28,
					"material":1
				}
			]
		},
		{
			"name":"hoodie_stitches_0.006",
			"primitives":[
				{
					"attributes":{
						"POSITION":29,
						"NORMAL":30,
						"TEXCOORD_0":31
					},
					"indices":32,
					"material":1
				}
			]
		},
		{
			"name":"hoodie_stitches_0.007",
			"primitives":[
				{
					"attributes":{
						"POSITION":33,
						"NORMAL":34,
						"TEXCOORD_0":35
					},
					"indices":36,
					"material":1
				}
			]
		},
		{
			"name":"hoodie_stitches_0.008",
			"primitives":[
				{
					"attributes":{
						"POSITION":37,
						"NORMAL":38,
						"TEXCOORD_0":39
					},
					"indices":40,
					"material":1
				}
			]
		},
		{
			"name":"hoodie_stitches_0.009",
			"primitives":[
				{
					"attributes":{
						"POSITION":41,
						"NORMAL":42,
						"TEXCOORD_0":43
					},
					"indices":44,
					"material":1
				}
			]
		},
		{
			"name":"hoodie_stitches_0.010",
			"primitives":[
				{
					"attributes":{
						"POSITION":45,
						"NORMAL":46,
						"TEXCOORD_0":47
					},
					"indices":48,
					"material":1
				}
			]
		},
		{
			"name":"hoodie_Sweat_hood_Rib_1X1_319gsm_hood_0",
			"primitives":[
				{
					"attributes":{
						"POSITION":49,
						"NORMAL":50,
						"TEXCOORD_0":51,
						"TEXCOORD_1":52
					},
					"indices":53,
					"material":0
				}
			]
		},
		{
			"name":"hoodie_Sweat_Rib_1X1_319gsm_hoodie_0",
			"primitives":[
				{
					"attributes":{
						"POSITION":54,
						"NORMAL":55,
						"TEXCOORD_0":56,
						"TEXCOORD_1":57
					},
					"indices":58,
					"material":0
				}
			]
		}
	],
	"textures":[
		{
			"sampler":0,
			"source":0
		},
		{
			"sampler":0,
			"source":1
		}
	],
	"images":[
		{
			"mimeType":"image/jpeg",
			"name":"Image_0",
			"uri":"Image_0.jpg"
		},
		{
			"mimeType":"image/jpeg",
			"name":"Image_1",
			"uri":"Image_1.jpg"
		}
	],
	"accessors":[
		{
			"bufferView":0,
			"componentType":5126,
			"count":5902,
			"max":[
				0.29557400941848755,
				0.9328489899635315,
				0.05923900008201599
			],
			"min":[
				-0.2972559928894043,
				0.8119869828224182,
				-0.15655000507831573
			],
			"type":"VEC3"
		},
		{
			"bufferView":1,
			"componentType":5126,
			"count":5902,
			"type":"VEC3"
		},
		{
			"bufferView":2,
			"componentType":5126,
			"count":5902,
			"type":"VEC2"
		},
		{
			"bufferView":3,
			"componentType":5126,
			"count":5902,
			"type":"VEC2"
		},
		{
			"bufferView":4,
			"componentType":5123,
			"count":29904,
			"type":"SCALAR"
		},
		{
			"bufferView":5,
			"componentType":5126,
			"count":65532,
			"max":[
				-0.03021799959242344,
				1.1613860130310059,
				-0.05490199849009514
			],
			"min":[
				-0.1324950009584427,
				0.9786270260810852,
				-0.1701200008392334
			],
			"type":"VEC3"
		},
		{
			"bufferView":6,
			"componentType":5126,
			"count":65532,
			"type":"VEC3"
		},
		{
			"bufferView":7,
			"componentType":5126,
			"count":65532,
			"type":"VEC2"
		},
		{
			"bufferView":8,
			"componentType":5123,
			"count":337518,
			"type":"SCALAR"
		},
		{
			"bufferView":9,
			"componentType":5126,
			"count":65532,
			"max":[
				0.0725879967212677,
				1.217242956161499,
				0.06764599680900574
			],
			"min":[
				-0.0508590005338192,
				0.9848179817199707,
				-0.1599549949169159
			],
			"type":"VEC3"
		},
		{
			"bufferView":10,
			"componentType":5126,
			"count":65532,
			"type":"VEC3"
		},
		{
			"bufferView":11,
			"componentType":5126,
			"count":65532,
			"type":"VEC2"
		},
		{
			"bufferView":12,
			"componentType":5123,
			"count":337413,
			"type":"SCALAR"
		},
		{
			"bufferView":13,
			"componentType":5126,
			"count":65532,
			"max":[
				0.01003200002014637,
				1.2177690267562866,
				0.06988099962472916
			],
			"min":[
				-0.14059500396251678,
				0.9707390069961548,
				-0.023305999115109444
			],
			"type":"VEC3"
		},
		{
			"bufferView":14,
			"componentType":5126,
			"count":65532,
			"type":"VEC3"
		},
		{
			"bufferView":15,
			"componentType":5126,
			"count":65532,
			"type":"VEC2"
		},
		{
			"bufferView":16,
			"componentType":5123,
			"count":337446,
			"type":"SCALAR"
		},
		{
			"bufferView":17,
			"componentType":5126,
			"count":65532,
			"max":[
				0.13721099495887756,
				1.4013619422912598,
				0.06984400004148483
			],
			"min":[
				-0.14166699349880219,
				0.9847689867019653,
				-0.08061199635267258
			],
			"type":"VEC3"
		},
		{
			"bufferView":18,
			"componentType":5126,
			"count":65532,
			"type":"VEC3"
		},
		{
			"bufferView":19,
			"componentType":5126,
			"count":65532,
			"type":"VEC2"
		},
		{
			"bufferView":20,
			"componentType":5123,
			"count":337428,
			"type":"SCALAR"
		},
		{
			"bufferView":21,
			"componentType":5126,
			"count":65532,
			"max":[
				-0.002604000037536025,
				1.2371599674224854,
				0.06946499645709991
			],
			"min":[
				-0.14149999618530273,
				0.9727630019187927,
				-0.054944999516010284
			],
			"type":"VEC3"
		},
		{
			"bufferView":22,
			"componentType":5126,
			"count":65532,
			"type":"VEC3"
		},
		{
			"bufferView":23,
			"componentType":5126,
			"count":65532,
			"type":"VEC2"
		},
		{
			"bufferView":24,
			"componentType":5123,
			"count":337440,
			"type":"SCALAR"
		},
		{
			"bufferView":25,
			"componentType":5126,
			"count":65532,
			"max":[
				0.14031599462032318,
				1.228592038154602,
				0.06764999777078629
			],
			"min":[
				-0.008561000227928162,
				0.994422972202301,
				-0.0019509999547153711
			],
			"type":"VEC3"
		},
		{
			"bufferView":26,
			"componentType":5126,
			"count":65532,
			"type":"VEC3"
		},
		{
			"bufferView":27,
			"componentType":5126,
			"count":65532,
			"type":"VEC2"
		},
		{
			"bufferView":28,
			"componentType":5123,
			"count":337413,
			"type":"SCALAR"
		},
		{
			"bufferView":29,
			"componentType":5126,
			"count":65532,
			"max":[
				0.14050500094890594,
				1.1588150262832642,
				0.053706999868154526
			],
			"min":[
				0.0659480020403862,
				0.9874100089073181,
				-0.08431299775838852
			],
			"type":"VEC3"
		},
		{
			"bufferView":30,
			"componentType":5126,
			"count":65532,
			"type":"VEC3"
		},
		{
			"bufferView":31,
			"componentType":5126,
			"count":65532,
			"type":"VEC2"
		},
		{
			"bufferView":32,
			"componentType":5123,
			"count":337395,
			"type":"SCALAR"
		},
		{
			"bufferView":33,
			"componentType":5126,
			"count":65532,
			"max":[
				0.15179899334907532,
				1.2148959636688232,
				-0.07930299639701843
			],
			"min":[
				0.030407000333070755,
				0.9533119797706604,
				-0.16633999347686768
			],
			"type":"VEC3"
		},
		{
			"bufferView":34,
			"componentType":5126,
			"count":65532,
			"type":"VEC3"
		},
		{
			"bufferView":35,
			"componentType":5126,
			"count":65532,
			"type":"VEC2"
		},
		{
			"bufferView":36,
			"componentType":5123,
			"count":337491,
			"type":"SCALAR"
		},
		{
			"bufferView":37,
			"componentType":5126,
			"count":65532,
			"max":[
				0.03983600065112114,
				1.2090179920196533,
				-0.14209100604057312
			],
			"min":[
				-0.10973300039768219,
				0.9868649840354919,
				-0.1701270043849945
			],
			"type":"VEC3"
		},
		{
			"bufferView":38,
			"componentType":5126,
			"count":65532,
			"type":"VEC3"
		},
		{
			"bufferView":39,
			"componentType":5126,
			"count":65532,
			"type":"VEC2"
		},
		{
			"bufferView":40,
			"componentType":5123,
			"count":337452,
			"type":"SCALAR"
		},
		{
			"bufferView":41,
			"componentType":5126,
			"count":65532,
			"max":[
				0.15198500454425812,
				1.160094976425171,
				-0.054868001490831375
			],
			"min":[
				-0.13218000531196594,
				0.951229989528656,
				-0.16996599733829498
			],
			"type":"VEC3"
		},
		{
			"bufferView":42,
			"componentType":5126,
			"count":65532,
			"type":"VEC3"
		},
		{
			"bufferView":43,
			"componentType":5126,
			"count":65532,
			"type":"VEC2"
		},
		{
			"bufferView":44,
			"componentType":5123,
			"count":337434,
			"type":"SCALAR"
		},
		{
			"bufferView":45,
			"componentType":5126,
			"count":55634,
			"max":[
				0.14315299689769745,
				1.1956729888916016,
				-0.12330999970436096
			],
			"min":[
				0.0028299998957663774,
				1.0181469917297363,
				-0.16631099581718445
			],
			"type":"VEC3"
		},
		{
			"bufferView":46,
			"componentType":5126,
			"count":55634,
			"type":"VEC3"
		},
		{
			"bufferView":47,
			"componentType":5126,
			"count":55634,
			"type":"VEC2"
		},
		{
			"bufferView":48,
			"componentType":5123,
			"count":286500,
			"type":"SCALAR"
		},
		{
			"bufferView":49,
			"componentType":5126,
			"count":4700,
			"max":[
				0.1019660010933876,
				1.4372730255126953,
				0.017867999151349068
			],
			"min":[
				-0.1095770001411438,
				1.3056269884109497,
				-0.2139890044927597
			],
			"type":"VEC3"
		},
		{
			"bufferView":50,
			"componentType":5126,
			"count":4700,
			"type":"VEC3"
		},
		{
			"bufferView":51,
			"componentType":5126,
			"count":4700,
			"type":"VEC2"
		},
		{
			"bufferView":52,
			"componentType":5126,
			"count":4700,
			"type":"VEC2"
		},
		{
			"bufferView":53,
			"componentType":5123,
			"count":21384,
			"type":"SCALAR"
		},
		{
			"bufferView":54,
			"componentType":5126,
			"count":58341,
			"max":[
				0.303056001663208,
				1.452746033668518,
				0.08405599743127823
			],
			"min":[
				-0.30169400572776794,
				0.8421810269355774,
				-0.22555600106716156
			],
			"type":"VEC3"
		},
		{
			"bufferView":55,
			"componentType":5126,
			"count":58341,
			"type":"VEC3"
		},
		{
			"bufferView":56,
			"componentType":5126,
			"count":58341,
			"type":"VEC2"
		},
		{
			"bufferView":57,
			"componentType":5126,
			"count":58341,
			"type":"VEC2"
		},
		{
			"bufferView":58,
			"componentType":5123,
			"count":305454,
			"type":"SCALAR"
		}
	],
	"bufferViews":[
		{
			"buffer":0,
			"byteLength":70824,
			"byteOffset":0,
			"target":34962
		},
		{
			"buffer":0,
			"byteLength":70824,
			"byteOffset":70824,
			"target":34962
		},
		{
			"buffer":0,
			"byteLength":47216,
			"byteOffset":141648,
			"target":34962
		},
		{
			"buffer":0,
			"byteLength":47216,
			"byteOffset":188864,
			"target":34962
		},
		{
			"buffer":0,
			"byteLength":59808,
			"byteOffset":236080,
			"target":34963
		},
		{
			"buffer":0,
			"byteLength":786384,
			"byteOffset":295888,
			"target":34962
		},
		{
			"buffer":0,
			"byteLength":786384,
			"byteOffset":1082272,
			"target":34962
		},
		{
			"buffer":0,
			"byteLength":524256,
			"byteOffset":1868656,
			"target":34962
		},
		{
			"buffer":0,
			"byteLength":675036,
			"byteOffset":2392912,
			"target":34963
		},
		{
			"buffer":0,
			"byteLength":786384,
			"byteOffset":3067948,
			"target":34962
		},
		{
			"buffer":0,
			"byteLength":786384,
			"byteOffset":3854332,
			"target":34962
		},
		{
			"buffer":0,
			"byteLength":524256,
			"byteOffset":4640716,
			"target":34962
		},
		{
			"buffer":0,
			"byteLength":674826,
			"byteOffset":5164972,
			"target":34963
		},
		{
			"buffer":0,
			"byteLength":786384,
			"byteOffset":5839800,
			"target":34962
		},
		{
			"buffer":0,
			"byteLength":786384,
			"byteOffset":6626184,
			"target":34962
		},
		{
			"buffer":0,
			"byteLength":524256,
			"byteOffset":7412568,
			"target":34962
		},
		{
			"buffer":0,
			"byteLength":674892,
			"byteOffset":7936824,
			"target":34963
		},
		{
			"buffer":0,
			"byteLength":786384,
			"byteOffset":8611716,
			"target":34962
		},
		{
			"buffer":0,
			"byteLength":786384,
			"byteOffset":9398100,
			"target":34962
		},
		{
			"buffer":0,
			"byteLength":524256,
			"byteOffset":10184484,
			"target":34962
		},
		{
			"buffer":0,
			"byteLength":674856,
			"byteOffset":10708740,
			"target":34963
		},
		{
			"buffer":0,
			"byteLength":786384,
			"byteOffset":11383596,
			"target":34962
		},
		{
			"buffer":0,
			"byteLength":786384,
			"byteOffset":12169980,
			"target":34962
		},
		{
			"buffer":0,
			"byteLength":524256,
			"byteOffset":12956364,
			"target":34962
		},
		{
			"buffer":0,
			"byteLength":674880,
			"byteOffset":13480620,
			"target":34963
		},
		{
			"buffer":0,
			"byteLength":786384,
			"byteOffset":14155500,
			"target":34962
		},
		{
			"buffer":0,
			"byteLength":786384,
			"byteOffset":14941884,
			"target":34962
		},
		{
			"buffer":0,
			"byteLength":524256,
			"byteOffset":15728268,
			"target":34962
		},
		{
			"buffer":0,
			"byteLength":674826,
			"byteOffset":16252524,
			"target":34963
		},
		{
			"buffer":0,
			"byteLength":786384,
			"byteOffset":16927352,
			"target":34962
		},
		{
			"buffer":0,
			"byteLength":786384,
			"byteOffset":17713736,
			"target":34962
		},
		{
			"buffer":0,
			"byteLength":524256,
			"byteOffset":18500120,
			"target":34962
		},
		{
			"buffer":0,
			"byteLength":674790,
			"byteOffset":19024376,
			"target":34963
		},
		{
			"buffer":0,
			"byteLength":786384,
			"byteOffset":19699168,
			"target":34962
		},
		{
			"buffer":0,
			"byteLength":786384,
			"byteOffset":20485552,
			"target":34962
		},
		{
			"buffer":0,
			"byteLength":524256,
			"byteOffset":21271936,
			"target":34962
		},
		{
			"buffer":0,
			"byteLength":674982,
			"byteOffset":21796192,
			"target":34963
		},
		{
			"buffer":0,
			"byteLength":786384,
			"byteOffset":22471176,
			"target":34962
		},
		{
			"buffer":0,
			"byteLength":786384,
			"byteOffset":23257560,
			"target":34962
		},
		{
			"buffer":0,
			"byteLength":524256,
			"byteOffset":24043944,
			"target":34962
		},
		{
			"buffer":0,
			"byteLength":674904,
			"byteOffset":24568200,
			"target":34963
		},
		{
			"buffer":0,
			"byteLength":786384,
			"byteOffset":25243104,
			"target":34962
		},
		{
			"buffer":0,
			"byteLength":786384,
			"byteOffset":26029488,
			"target":34962
		},
		{
			"buffer":0,
			"byteLength":524256,
			"byteOffset":26815872,
			"target":34962
		},
		{
			"buffer":0,
			"byteLength":674868,
			"byteOffset":27340128,
			"target":34963
		},
		{
			"buffer":0,
			"byteLength":667608,
			"byteOffset":28014996,
			"target":34962
		},
		{
			"buffer":0,
			"byteLength":667608,
			"byteOffset":28682604,
			"target":34962
		},
		{
			"buffer":0,
			"byteLength":445072,
			"byteOffset":29350212,
			"target":34962
		},
		{
			"buffer":0,
			"byteLength":573000,
			"byteOffset":29795284,
			"target":34963
		},
		{
			"buffer":0,
			"byteLength":56400,
			"byteOffset":30368284,
			"target":34962
		},
		{
			"buffer":0,
			"byteLength":56400,
			"byteOffset":30424684,
			"target":34962
		},
		{
			"buffer":0,
			"byteLength":37600,
			"byteOffset":30481084,
			"target":34962
		},
		{
			"buffer":0,
			"byteLength":37600,
			"byteOffset":30518684,
			"target":34962
		},
		{
			"buffer":0,
			"byteLength":42768,
			"byteOffset":30556284,
			"target":34963
		},
		{
			"buffer":0,
			"byteLength":700092,
			"byteOffset":30599052,
			"target":34962
		},
		{
			"buffer":0,
			"byteLength":700092,
			"byteOffset":31299144,
			"target":34962
		},
		{
			"buffer":0,
			"byteLength":466728,
			"byteOffset":31999236,
			"target":34962
		},
		{
			"buffer":0,
			"byteLength":466728,
			"byteOffset":32465964,
			"target":34962
		},
		{
			"buffer":0,
			"byteLength":610908,
			"byteOffset":32932692,
			"target":34963
		}
	],
	"samplers":[
		{
			"magFilter":9729,
			"minFilter":9987
		}
	],
	"buffers":[
		{
			"byteLength":33543600,
			"uri":"untitled.bin"
		}
	]
}
